<svg width="375" height="47" viewBox="0 0 375 47" fill="none" xmlns="http://www.w3.org/2000/svg">
<g clip-path="url(#clip0_2264_68324)">
<path d="M-145.894 13.5046C-274.067 21.1552 -317.812 51.2867 -309.144 74.5071L745.707 82.2345L746.595 4.19612C710.083 -6.54942 646.926 -10.853 619.911 -11.6616C510.063 -16.505 417.342 -4.38439 357.51 5.28426C230.82 25.757 118.099 14.4722 64.3893 13.5047C-102.244 10.5029 -106.401 10.6523 -145.894 13.5046Z" fill="#FFF2B8"/>
<path d="M-2.54024 23.1226C-130.712 32.6131 -185.833 80.1889 -177.164 108.994L877.686 118.58L878.574 21.773C842.062 8.44316 778.904 3.10452 751.89 2.10144C642.042 -3.90677 549.321 11.1289 489.489 23.1229C362.799 48.5193 249.94 38.2823 196.368 33.3203C77.3954 22.3005 36.9534 19.5844 -2.54024 23.1226Z" fill="#FFE87D"/>
</g>
<defs>
<clipPath id="clip0_2264_68324">
<rect width="375" height="47" fill="white"/>
</clipPath>
</defs>
</svg>
